<svg width="38" height="38" viewBox="0 0 38 38" fill="none" xmlns="http://www.w3.org/2000/svg">
<path d="M15.8192 22.1384C15.8192 23.7754 14.6317 24.2929 13.1728 24.2929H9.34732V19.8058H13.2491C14.8268 19.8143 15.8192 20.4674 15.8192 22.1384ZM15.1661 15.1576C15.1661 13.6562 14.004 13.3 12.7147 13.3H9.3558V17.1H12.9777C14.2585 17.1 15.1661 16.5402 15.1661 15.1576ZM26.3879 17.1254C24.8357 17.1254 23.8009 18.0924 23.6991 19.6446H28.975C28.8308 18.0754 28.0165 17.1254 26.3879 17.1254ZM38 4.07143V33.9286C38 36.1763 36.1763 38 33.9286 38H4.07143C1.82366 38 0 36.1763 0 33.9286V4.07143C0 1.82366 1.82366 0 4.07143 0H33.9286C36.1763 0 38 1.82366 38 4.07143ZM23.046 12.9777H29.6451V11.3746H23.046V12.9777ZM19.3987 22.3335C19.3987 20.2893 18.4317 18.525 16.4299 17.9567C17.8888 17.2612 18.6522 16.4554 18.6522 14.8183C18.6522 11.5781 16.2348 10.7893 13.4442 10.7893H5.76786V27.075H13.6647C16.625 27.058 19.3987 25.6415 19.3987 22.3335ZM32.2321 21.0781C32.2321 17.592 30.1879 14.6826 26.4982 14.6826C22.9018 14.6826 20.4674 17.3799 20.4674 20.9254C20.4674 24.5982 22.783 27.1174 26.4982 27.1174C29.3143 27.1174 31.1379 25.8536 32.0201 23.1478H29.1616C28.8478 24.1571 27.5839 24.683 26.6 24.683C24.7 24.683 23.7076 23.5719 23.7076 21.6888H32.2067C32.2152 21.4937 32.2321 21.2817 32.2321 21.0781Z" fill="#F0F600"/>
</svg>
