<svg width="39" height="38" viewBox="0 0 39 38" fill="none" xmlns="http://www.w3.org/2000/svg">
<path d="M13.0446 30.5975C13.0446 30.7547 12.8637 30.8804 12.6357 30.8804C12.3762 30.904 12.1954 30.7783 12.1954 30.5975C12.1954 30.4404 12.3762 30.3147 12.6042 30.3147C12.8401 30.2911 13.0446 30.4168 13.0446 30.5975ZM10.5992 30.2439C10.5442 30.4011 10.7014 30.5818 10.9373 30.629C11.1417 30.7075 11.3776 30.629 11.4248 30.4718C11.472 30.3147 11.3226 30.1339 11.0867 30.0632C10.8823 30.0082 10.6542 30.0868 10.5992 30.2439ZM14.0746 30.1104C13.8466 30.1654 13.6893 30.3147 13.7129 30.4954C13.7365 30.6525 13.9409 30.7547 14.1768 30.6997C14.4048 30.6447 14.5621 30.4954 14.5385 30.3382C14.5149 30.1889 14.3026 30.0868 14.0746 30.1104ZM19.2484 0C8.34254 0 0 8.27407 0 19.1726C0 27.8867 5.48831 35.3435 13.3276 37.968C14.3341 38.1487 14.6879 37.528 14.6879 37.0172C14.6879 36.53 14.6643 33.8427 14.6643 32.1926C14.6643 32.1926 9.16028 33.3713 8.00444 29.8511C8.00444 29.8511 7.10806 27.5645 5.81855 26.9752C5.81855 26.9752 4.01794 25.7415 5.94435 25.7651C5.94435 25.7651 7.90222 25.9223 8.97943 27.7924C10.7014 30.8254 13.5871 29.9532 14.7115 29.4346C14.8923 28.1774 15.4034 27.3052 15.9696 26.7866C11.5742 26.2994 7.13952 25.663 7.13952 18.1039C7.13952 15.9431 7.7371 14.8587 8.99516 13.4758C8.79073 12.9651 8.12238 10.8592 9.1996 8.14049C10.8429 7.62974 14.625 10.262 14.625 10.262C16.1976 9.82202 17.8881 9.59415 19.5629 9.59415C21.2377 9.59415 22.9282 9.82202 24.5008 10.262C24.5008 10.262 28.2829 7.62188 29.9262 8.14049C31.0034 10.8671 30.3351 12.9651 30.1306 13.4758C31.3887 14.8666 32.1593 15.951 32.1593 18.1039C32.1593 25.6865 27.528 26.2916 23.1327 26.7866C23.856 27.4074 24.4694 28.586 24.4694 30.4325C24.4694 33.0805 24.4458 36.3572 24.4458 37.0015C24.4458 37.5122 24.8075 38.133 25.806 37.9523C33.669 35.3435 39 27.8867 39 19.1726C39 8.27407 30.1542 0 19.2484 0ZM7.64274 27.1009C7.54052 27.1795 7.56411 27.3602 7.69778 27.5095C7.82359 27.6352 8.00444 27.6902 8.10665 27.5881C8.20887 27.5095 8.18528 27.3288 8.05161 27.1795C7.92581 27.0538 7.74496 26.9988 7.64274 27.1009ZM6.79355 26.4644C6.73851 26.5666 6.81714 26.6923 6.97439 26.7709C7.1002 26.8495 7.25746 26.8259 7.3125 26.7159C7.36754 26.6137 7.28891 26.488 7.13165 26.4094C6.97439 26.3623 6.84859 26.3859 6.79355 26.4644ZM9.34113 29.2617C9.21532 29.3639 9.2625 29.5996 9.44335 29.7489C9.62419 29.9296 9.85222 29.9532 9.95444 29.8275C10.0567 29.7253 10.0095 29.4896 9.85222 29.3403C9.67923 29.1596 9.44335 29.136 9.34113 29.2617ZM8.44476 28.1067C8.31895 28.1853 8.31895 28.3896 8.44476 28.5703C8.57056 28.751 8.78286 28.8296 8.88508 28.751C9.01089 28.6489 9.01089 28.4446 8.88508 28.2638C8.775 28.0831 8.57056 28.0045 8.44476 28.1067Z" fill="#F0F600"/>
</svg>
